<?xml version="1.0" encoding="UTF-8"?>
<svg xmlns="http://www.w3.org/2000/svg" xmlns:xlink="http://www.w3.org/1999/xlink"
     width="800" height="1500" viewBox="-400.0 0 800 1500" style="background-color:#ffffff">
<defs>
</defs>
<path d="M0,40.0 L-263.33333333333337,90.0" stroke="#C88549" stroke-width="4" />
<path d="M0,40.0 L0,90.0" stroke="#C8B96D" stroke-width="4" />
<path d="M0,40.0 L263.33333333333337,90.0" stroke="#5A7243" stroke-width="4" />
<path d="M-126.66666666666667,40.0 A126.66666666666667,30.0,0,0,0,126.66666666666667,40.0 A126.66666666666667,30.0,0,0,0,-126.66666666666667,40.0" fill="#bc4b51" stroke="#89373B" stroke-width="2" />
<text x="0" y="40.0" font-size="18" text-anchor="middle" fill="#89373B" font-family="arial">Exper</text>
<path d="M-390.00000000000006,100.0 v17 a20,20,0,0,0,20,20 h213.33333333333334 a20,20,0,0,0,20,-20 v-17 a20,20,0,0,0,-20,-20 h-213.33333333333334 a20,20,0,0,0,-20,20" fill="#F4A259" stroke="#C88549" stroke-width="2" />
<text x="-380.00000000000006" y="105.0" font-size="18" fill="#865931" font-family="arial">static_and_class_methods</text>
<text x="-370.00000000000006" y="125.0" font-size="14" font-family="arial">setup()</text>
<path d="M-126.66666666666667,100.0 v238 a20,20,0,0,0,20,20 h213.33333333333334 a20,20,0,0,0,20,-20 v-238 a20,20,0,0,0,-20,-20 h-213.33333333333334 a20,20,0,0,0,-20,20" fill="#f4e285" stroke="#C8B96D" stroke-width="2" />
<text x="-116.66666666666667" y="105.0" font-size="18" fill="#867C49" font-family="arial">properties</text>
<text x="-106.66666666666667" y="125.0" font-size="14" font-family="arial">hsegs()</text>
<text x="-106.66666666666667" y="142.0" font-size="14" font-family="arial">inactive_hseg_dict()</text>
<text x="-106.66666666666667" y="159.0" font-size="14" font-family="arial">create_hsegs()</text>
<text x="-106.66666666666667" y="176.0" font-size="14" font-family="arial">meta_data()</text>
<text x="-106.66666666666667" y="193.0" font-size="14" font-family="arial">hseg_slices()</text>
<text x="-106.66666666666667" y="210.0" font-size="14" font-family="arial">channel_dict()</text>
<text x="-106.66666666666667" y="227.0" font-size="14" font-family="arial">to_msr()</text>
<text x="-106.66666666666667" y="244.0" font-size="14" font-family="arial">to_summarize()</text>
<text x="-106.66666666666667" y="261.0" font-size="14" font-family="arial">output_path()</text>
<text x="-106.66666666666667" y="278.0" font-size="14" font-family="arial">cell_aggr_labels()</text>
<text x="-106.66666666666667" y="295.0" font-size="14" font-family="arial">cell_aggr_col_dict()</text>
<text x="-106.66666666666667" y="312.0" font-size="14" font-family="arial">nuc_aggr_col_dict()</text>
<text x="-106.66666666666667" y="329.0" font-size="14" font-family="arial">nuc_aggr_labels()</text>
<text x="-106.66666666666667" y="346.0" font-size="14" font-family="arial">create_aggr_col_dicts()</text>
<path d="M136.66666666666669,100.0 v153 a20,20,0,0,0,20,20 h213.33333333333334 a20,20,0,0,0,20,-20 v-153 a20,20,0,0,0,-20,-20 h-213.33333333333334 a20,20,0,0,0,-20,20" fill="#739356" stroke="#5A7243" stroke-width="2" />
<text x="146.66666666666669" y="105.0" font-size="18" fill="#3F512F" font-family="arial">processing</text>
<text x="156.66666666666669" y="125.0" font-size="14" font-family="arial">make_data()</text>
<text x="156.66666666666669" y="142.0" font-size="14" font-family="arial">output_new_hdings()</text>
<text x="156.66666666666669" y="159.0" font-size="14" font-family="arial">output_old_hdings()</text>
<text x="156.66666666666669" y="176.0" font-size="14" font-family="arial">output_all_cols(cell_sheet, nuc_sheet)</text>
<text x="156.66666666666669" y="193.0" font-size="14" font-family="arial">output_cell_cols_def()</text>
<text x="156.66666666666669" y="210.0" font-size="14" font-family="arial">output_cell_cols(cell_col_hdings)</text>
<text x="156.66666666666669" y="227.0" font-size="14" font-family="arial">output_nuc_cols_def()</text>
<text x="156.66666666666669" y="244.0" font-size="14" font-family="arial">output_nuc_cols(nuc_col_hdings)</text>
<text x="156.66666666666669" y="261.0" font-size="14" font-family="arial">make_bob_hdings_list(,input_hdings)</text>
<path d="M0,418.0 L-263.33333333333337,468.0" stroke="#C88549" stroke-width="4" />
<path d="M0,418.0 L0,468.0" stroke="#C8B96D" stroke-width="4" />
<path d="M0,418.0 L263.33333333333337,468.0" stroke="#5A7243" stroke-width="4" />
<path d="M-126.66666666666667,418.0 A126.66666666666667,30.0,0,0,0,126.66666666666667,418.0 A126.66666666666667,30.0,0,0,0,-126.66666666666667,418.0" fill="#bc4b51" stroke="#89373B" stroke-width="2" />
<text x="0" y="418.0" font-size="18" text-anchor="middle" fill="#89373B" font-family="arial">Hseg</text>
<path d="M-390.00000000000006,478.0 v17 a20,20,0,0,0,20,20 h213.33333333333334 a20,20,0,0,0,20,-20 v-17 a20,20,0,0,0,-20,-20 h-213.33333333333334 a20,20,0,0,0,-20,20" fill="#F4A259" stroke="#C88549" stroke-width="2" />
<text x="-380.00000000000006" y="483.0" font-size="18" fill="#865931" font-family="arial">static_and_class_methods</text>
<text x="-370.00000000000006" y="503.0" font-size="14" font-family="arial">parse_rt_label(label)</text>
<path d="M-126.66666666666667,478.0 v204 a20,20,0,0,0,20,20 h213.33333333333334 a20,20,0,0,0,20,-20 v-204 a20,20,0,0,0,-20,-20 h-213.33333333333334 a20,20,0,0,0,-20,20" fill="#f4e285" stroke="#C8B96D" stroke-width="2" />
<text x="-116.66666666666667" y="483.0" font-size="18" fill="#867C49" font-family="arial">properties</text>
<text x="-106.66666666666667" y="503.0" font-size="14" font-family="arial">file_dict()</text>
<text x="-106.66666666666667" y="520.0" font-size="14" font-family="arial">cell_file_dict()</text>
<text x="-106.66666666666667" y="537.0" font-size="14" font-family="arial">create_file_dicts()</text>
<text x="-106.66666666666667" y="554.0" font-size="14" font-family="arial">slices()</text>
<text x="-106.66666666666667" y="571.0" font-size="14" font-family="arial">raw_stack()</text>
<text x="-106.66666666666667" y="588.0" font-size="14" font-family="arial">cal()</text>
<text x="-106.66666666666667" y="605.0" font-size="14" font-family="arial">nuc_bin()</text>
<text x="-106.66666666666667" y="622.0" font-size="14" font-family="arial">open_hseg_im(suf)</text>
<text x="-106.66666666666667" y="639.0" font-size="14" font-family="arial">cells()</text>
<text x="-106.66666666666667" y="656.0" font-size="14" font-family="arial">prj_imps(prj_method)</text>
<text x="-106.66666666666667" y="673.0" font-size="14" font-family="arial">roi_dicts(roi_dict_name)</text>
<text x="-106.66666666666667" y="690.0" font-size="14" font-family="arial">create_nucs()</text>
<path d="M136.66666666666669,478.0 v68 a20,20,0,0,0,20,20 h213.33333333333334 a20,20,0,0,0,20,-20 v-68 a20,20,0,0,0,-20,-20 h-213.33333333333334 a20,20,0,0,0,-20,20" fill="#739356" stroke="#5A7243" stroke-width="2" />
<text x="146.66666666666669" y="483.0" font-size="18" fill="#3F512F" font-family="arial">processing:make_data</text>
<text x="156.66666666666669" y="503.0" font-size="14" font-family="arial">make_data()</text>
<text x="156.66666666666669" y="520.0" font-size="14" font-family="arial">make_raw_data()</text>
<text x="156.66666666666669" y="537.0" font-size="14" font-family="arial">make_summary_data()</text>
<text x="156.66666666666669" y="554.0" font-size="14" font-family="arial">rt_data_to_cells(rt_dict, hding_subpart)</text>
<path d="M0,762.0 L-263.33333333333337,812.0" stroke="#C88549" stroke-width="4" />
<path d="M0,762.0 L0,812.0" stroke="#C8B96D" stroke-width="4" />
<path d="M-126.66666666666667,762.0 A126.66666666666667,30.0,0,0,0,126.66666666666667,762.0 A126.66666666666667,30.0,0,0,0,-126.66666666666667,762.0" fill="#bc4b51" stroke="#89373B" stroke-width="2" />
<text x="0" y="762.0" font-size="18" text-anchor="middle" fill="#89373B" font-family="arial">Cell</text>
<path d="M-390.00000000000006,822.0 v17 a20,20,0,0,0,20,20 h213.33333333333334 a20,20,0,0,0,20,-20 v-17 a20,20,0,0,0,-20,-20 h-213.33333333333334 a20,20,0,0,0,-20,20" fill="#F4A259" stroke="#C88549" stroke-width="2" />
<text x="-380.00000000000006" y="827.0" font-size="18" fill="#865931" font-family="arial">static_and_class_methods</text>
<text x="-370.00000000000006" y="847.0" font-size="14" font-family="arial">read_roi_csv(file_path, cal)</text>
<path d="M-126.66666666666667,822.0 v255 a20,20,0,0,0,20,20 h213.33333333333334 a20,20,0,0,0,20,-20 v-255 a20,20,0,0,0,-20,-20 h-213.33333333333334 a20,20,0,0,0,-20,20" fill="#f4e285" stroke="#C8B96D" stroke-width="2" />
<text x="-116.66666666666667" y="827.0" font-size="18" fill="#867C49" font-family="arial">properties</text>
<text x="-106.66666666666667" y="847.0" font-size="14" font-family="arial">roi()</text>
<text x="-106.66666666666667" y="864.0" font-size="14" font-family="arial">nucs()</text>
<text x="-106.66666666666667" y="881.0" font-size="14" font-family="arial">add_nuc(nuc_roi)</text>
<text x="-106.66666666666667" y="898.0" font-size="14" font-family="arial">cell_data()</text>
<text x="-106.66666666666667" y="915.0" font-size="14" font-family="arial">cell_data_hdings()</text>
<text x="-106.66666666666667" y="932.0" font-size="14" font-family="arial">nuc_data_hdings()</text>
<text x="-106.66666666666667" y="949.0" font-size="14" font-family="arial">nuc_data()</text>
<text x="-106.66666666666667" y="966.0" font-size="14" font-family="arial">init_data_attrs()</text>
<text x="-106.66666666666667" y="983.0" font-size="14" font-family="arial">add_to_cell_data(hdings, new_data)</text>
<text x="-106.66666666666667" y="1000.0" font-size="14" font-family="arial">add_to_nuc_data(hdings, new_data)</text>
<text x="-106.66666666666667" y="1017.0" font-size="14" font-family="arial">calc_summary_data(hding)</text>
<text x="-106.66666666666667" y="1034.0" font-size="14" font-family="arial">get_nuc_data_col(hding)</text>
<text x="-106.66666666666667" y="1051.0" font-size="14" font-family="arial">create_vor_roi()</text>
<text x="-106.66666666666667" y="1068.0" font-size="14" font-family="arial">creating_vor_roi()</text>
<text x="-106.66666666666667" y="1085.0" font-size="14" font-family="arial">match_vor_nuc(vor_rois)</text>
</svg>