<?xml version="1.0" encoding="UTF-8" standalone="no"?><svg xmlns="http://www.w3.org/2000/svg" xmlns:xlink="http://www.w3.org/1999/xlink" contentScriptType="application/ecmascript" contentStyleType="text/css" height="692px" preserveAspectRatio="none" style="width:748px;height:692px;" version="1.1" viewBox="0 0 748 692" width="748px" zoomAndPan="magnify"><defs><filter height="300%" id="fuy6aqnvbhe51" width="300%" x="-1" y="-1"><feGaussianBlur result="blurOut" stdDeviation="2.0"/><feColorMatrix in="blurOut" result="blurOut2" type="matrix" values="0 0 0 0 0 0 0 0 0 0 0 0 0 0 0 0 0 0 .4 0"/><feOffset dx="4.0" dy="4.0" in="blurOut2" result="blurOut3"/><feBlend in="SourceGraphic" in2="blurOut3" mode="normal"/></filter></defs><g><text fill="#000000" font-family="sans-serif" font-size="18" lengthAdjust="spacingAndGlyphs" textLength="148" x="303.5" y="16.708">bob_py 11/25/19</text><!--MD5=[23ecbb7afd56fbca3966f61bc3cf15b2]
class Exper--><rect fill="#FEFECE" filter="url(#fuy6aqnvbhe51)" height="567.3828" id="Exper" style="stroke: #A80036; stroke-width: 1.5;" width="167" x="6" y="71.9531"/><ellipse cx="67.75" cy="87.9531" fill="#ADD1B2" rx="11" ry="11" style="stroke: #A80036; stroke-width: 1.0;"/><path d="M70.0938,83.625 L70.2656,83.7031 C70.4844,83.3906 70.6875,83.2969 70.9844,83.2969 C71.2813,83.2969 71.5625,83.4375 71.7188,83.7031 C71.8125,83.8594 71.8281,83.9844 71.8281,84.4219 L71.8281,85.8438 C71.8281,86.2656 71.7969,86.4531 71.6875,86.6094 C71.5156,86.8281 71.25,86.9688 70.9844,86.9688 C70.7656,86.9688 70.5313,86.8594 70.3906,86.7188 C70.25,86.5938 70.2188,86.4688 70.1563,86.0625 C70.0625,85.6563 69.8906,85.4375 69.4063,85.1563 C68.9375,84.9063 68.3281,84.75 67.75,84.75 C66.0156,84.75 64.7656,86.0625 64.7656,87.8438 L64.7656,88.9375 C64.7656,90.6406 66.0625,91.7344 68.1094,91.7344 C68.875,91.7344 69.5625,91.6094 69.9844,91.3438 C70.1719,91.25 70.1719,91.25 70.625,90.7656 C70.8125,90.5781 71.0156,90.5 71.2344,90.5 C71.7031,90.5 72.0938,90.8906 72.0938,91.3438 C72.0938,91.7344 71.7656,92.1875 71.1875,92.5938 C70.4375,93.1406 69.2813,93.4375 68.0625,93.4375 C65.1719,93.4375 63.0625,91.5469 63.0625,88.9688 L63.0625,87.8438 C63.0625,85.125 65.0625,83.0469 67.6875,83.0469 C68.5625,83.0469 69.1563,83.1875 70.0938,83.625 Z "/><text fill="#000000" font-family="sans-serif" font-size="12" lengthAdjust="spacingAndGlyphs" textLength="35" x="88.25" y="92.1074">Exper</text><line style="stroke: #A80036; stroke-width: 1.5;" x1="7" x2="172" y1="103.9531" y2="103.9531"/><rect fill="none" height="6" style="stroke: #C82930; stroke-width: 1.0;" width="6" x="14" y="128.7578"/><text fill="#000000" font-family="sans-serif" font-size="11" lengthAdjust="spacingAndGlyphs" textLength="39" x="26" y="134.9683">IN_DEV</text><rect fill="none" height="6" style="stroke: #C82930; stroke-width: 1.0;" width="6" x="14" y="141.5625"/><text fill="#000000" font-family="sans-serif" font-size="11" lengthAdjust="spacingAndGlyphs" textLength="62" x="26" y="147.7729">ONE_HSEG</text><rect fill="none" height="6" style="stroke: #C82930; stroke-width: 1.0;" width="6" x="14" y="154.3672"/><text fill="#000000" font-family="sans-serif" font-size="11" lengthAdjust="spacingAndGlyphs" textLength="38" x="26" y="160.5776">CATCH</text><rect fill="none" height="6" style="stroke: #C82930; stroke-width: 1.0;" width="6" x="14" y="167.1719"/><text fill="#000000" font-family="sans-serif" font-size="11" lengthAdjust="spacingAndGlyphs" textLength="100" x="26" y="173.3823">PRINT_PROGRESS</text><text fill="#000000" font-family="sans-serif" font-size="11" lengthAdjust="spacingAndGlyphs" textLength="0" x="30" y="186.187"/><rect fill="none" height="6" style="stroke: #C82930; stroke-width: 1.0;" width="6" x="14" y="192.7813"/><text fill="#000000" font-family="sans-serif" font-size="11" lengthAdjust="spacingAndGlyphs" textLength="101" x="26" y="198.9917">JSON_KEY_SLICES</text><rect fill="none" height="6" style="stroke: #C82930; stroke-width: 1.0;" width="6" x="14" y="205.5859"/><text fill="#000000" font-family="sans-serif" font-size="11" lengthAdjust="spacingAndGlyphs" textLength="121" x="26" y="211.7964">JSON_KEY_CHANNELS</text><rect fill="none" height="6" style="stroke: #C82930; stroke-width: 1.0;" width="6" x="14" y="218.3906"/><text fill="#000000" font-family="sans-serif" font-size="11" lengthAdjust="spacingAndGlyphs" textLength="90" x="26" y="224.6011">JSON_KEY_CALC</text><rect fill="none" height="6" style="stroke: #C82930; stroke-width: 1.0;" width="6" x="14" y="231.1953"/><text fill="#000000" font-family="sans-serif" font-size="11" lengthAdjust="spacingAndGlyphs" textLength="56" x="26" y="237.4058">JSON_SUF</text><rect fill="none" height="6" style="stroke: #C82930; stroke-width: 1.0;" width="6" x="14" y="244"/><text fill="#000000" font-family="sans-serif" font-size="11" lengthAdjust="spacingAndGlyphs" textLength="101" x="26" y="250.2104">JSON_SPLIT_CHAR</text><text fill="#000000" font-family="sans-serif" font-size="11" lengthAdjust="spacingAndGlyphs" textLength="0" x="30" y="263.0151"/><rect fill="none" height="6" style="stroke: #C82930; stroke-width: 1.0;" width="6" x="14" y="269.6094"/><text fill="#000000" font-family="sans-serif" font-size="11" lengthAdjust="spacingAndGlyphs" textLength="84" x="26" y="275.8198">TEMP_OUT_DIR</text><text fill="#000000" font-family="sans-serif" font-size="11" lengthAdjust="spacingAndGlyphs" textLength="0" x="30" y="288.6245"/><line style="stroke: #A80036; stroke-width: 1.0; stroke-dasharray: 1.0,2.0;" x1="7" x2="42.5" y1="118.3555" y2="118.3555"/><text fill="#000000" font-family="sans-serif" font-size="11" lengthAdjust="spacingAndGlyphs" textLength="94" x="42.5" y="121.6636">Class Constants</text><line style="stroke: #A80036; stroke-width: 1.0; stroke-dasharray: 1.0,2.0;" x1="136.5" x2="172" y1="118.3555" y2="118.3555"/><ellipse cx="17" cy="315.0234" fill="none" rx="3" ry="3" style="stroke: #038048; stroke-width: 1.0;"/><text fill="#000000" font-family="sans-serif" font-size="11" lengthAdjust="spacingAndGlyphs" textLength="32" x="26" y="318.2339">name</text><ellipse cx="17" cy="327.8281" fill="none" rx="3" ry="3" style="stroke: #038048; stroke-width: 1.0;"/><text fill="#000000" font-family="sans-serif" font-size="11" lengthAdjust="spacingAndGlyphs" textLength="25" x="26" y="331.0386">path</text><line style="stroke: #A80036; stroke-width: 1.0; stroke-dasharray: 1.0,2.0;" x1="7" x2="37" y1="301.6211" y2="301.6211"/><text fill="#000000" font-family="sans-serif" font-size="11" lengthAdjust="spacingAndGlyphs" textLength="105" x="37" y="304.9292">Instance Variables</text><line style="stroke: #A80036; stroke-width: 1.0; stroke-dasharray: 1.0,2.0;" x1="142" x2="172" y1="301.6211" y2="301.6211"/><ellipse cx="17" cy="357.4375" fill="#84BE84" rx="3" ry="3" style="stroke: #038048; stroke-width: 1.0;"/><text fill="#000000" font-family="sans-serif" font-size="11" lengthAdjust="spacingAndGlyphs" textLength="43" x="26" y="360.6479">hsegs()</text><ellipse cx="17" cy="370.2422" fill="#84BE84" rx="3" ry="3" style="stroke: #038048; stroke-width: 1.0;"/><text fill="#000000" font-family="sans-serif" font-size="11" lengthAdjust="spacingAndGlyphs" textLength="62" x="26" y="373.4526">hseg_dict()</text><ellipse cx="17" cy="383.0469" fill="#84BE84" rx="3" ry="3" style="stroke: #038048; stroke-width: 1.0;"/><text fill="#000000" font-family="sans-serif" font-size="11" lengthAdjust="spacingAndGlyphs" textLength="59" x="26" y="386.2573">channels()</text><ellipse cx="17" cy="395.8516" fill="#84BE84" rx="3" ry="3" style="stroke: #038048; stroke-width: 1.0;"/><text fill="#000000" font-family="sans-serif" font-size="11" lengthAdjust="spacingAndGlyphs" textLength="98" x="26" y="399.062">prj_method_dict()</text><ellipse cx="17" cy="408.6563" fill="#84BE84" rx="3" ry="3" style="stroke: #038048; stroke-width: 1.0;"/><text fill="#000000" font-family="sans-serif" font-size="11" lengthAdjust="spacingAndGlyphs" textLength="75" x="26" y="411.8667">hseg_slices()</text><ellipse cx="17" cy="421.4609" fill="#84BE84" rx="3" ry="3" style="stroke: #038048; stroke-width: 1.0;"/><text fill="#000000" font-family="sans-serif" font-size="11" lengthAdjust="spacingAndGlyphs" textLength="56" x="26" y="424.6714">calc_dict()</text><text fill="#000000" font-family="sans-serif" font-size="11" lengthAdjust="spacingAndGlyphs" textLength="0" x="30" y="437.4761"/><line style="stroke: #A80036; stroke-width: 1.0; stroke-dasharray: 1.0,2.0;" x1="7" x2="60" y1="344.0352" y2="344.0352"/><text fill="#000000" font-family="sans-serif" font-size="11" lengthAdjust="spacingAndGlyphs" textLength="59" x="60" y="347.3433">Properties</text><line style="stroke: #A80036; stroke-width: 1.0; stroke-dasharray: 1.0,2.0;" x1="119" x2="172" y1="344.0352" y2="344.0352"/><polygon fill="#4177AF" points="17,459.875,13,465.875,21,465.875" style="stroke: #1963A0; stroke-width: 1.0;"/><text fill="#000000" font-family="sans-serif" font-size="11" lengthAdjust="spacingAndGlyphs" textLength="89" x="26" y="467.0854">load_json_info()</text><polygon fill="#4177AF" points="17,472.6797,13,478.6797,21,478.6797" style="stroke: #1963A0; stroke-width: 1.0;"/><text fill="#000000" font-family="sans-serif" font-size="11" lengthAdjust="spacingAndGlyphs" textLength="85" x="26" y="479.8901">create_hsegs()</text><line style="stroke: #A80036; stroke-width: 1.0; stroke-dasharray: 1.0,2.0;" x1="7" x2="10" y1="450.4727" y2="450.4727"/><text fill="#000000" font-family="sans-serif" font-size="11" lengthAdjust="spacingAndGlyphs" textLength="159" x="10" y="453.7808">Methods - create properties</text><line style="stroke: #A80036; stroke-width: 1.0; stroke-dasharray: 1.0,2.0;" x1="169" x2="172" y1="450.4727" y2="450.4727"/><polygon fill="#4177AF" points="17,502.2891,13,508.2891,21,508.2891" style="stroke: #1963A0; stroke-width: 1.0;"/><text fill="#000000" font-family="sans-serif" font-size="11" lengthAdjust="spacingAndGlyphs" textLength="89" x="26" y="509.4995">create_out_dir()</text><polygon fill="#4177AF" points="17,515.0938,13,521.0938,21,521.0938" style="stroke: #1963A0; stroke-width: 1.0;"/><text fill="#000000" font-family="sans-serif" font-size="11" lengthAdjust="spacingAndGlyphs" textLength="114" x="26" y="522.3042">get_channel_name()</text><line style="stroke: #A80036; stroke-width: 1.0; stroke-dasharray: 1.0,2.0;" x1="7" x2="65.5" y1="492.8867" y2="492.8867"/><text fill="#000000" font-family="sans-serif" font-size="11" lengthAdjust="spacingAndGlyphs" textLength="48" x="65.5" y="496.1948">Methods</text><line style="stroke: #A80036; stroke-width: 1.0; stroke-dasharray: 1.0,2.0;" x1="113.5" x2="172" y1="492.8867" y2="492.8867"/><polygon fill="#4177AF" points="17,544.7031,13,550.7031,21,550.7031" style="stroke: #1963A0; stroke-width: 1.0;"/><text fill="#000000" font-family="sans-serif" font-size="11" lengthAdjust="spacingAndGlyphs" textLength="64" x="26" y="551.9136">get_prefix()</text><polygon fill="#4177AF" points="17,557.5078,13,563.5078,21,563.5078" style="stroke: #1963A0; stroke-width: 1.0;"/><text fill="#000000" font-family="sans-serif" font-size="11" lengthAdjust="spacingAndGlyphs" textLength="42" x="26" y="564.7183">get_id()</text><polygon fill="#4177AF" points="17,570.3125,13,576.3125,21,576.3125" style="stroke: #1963A0; stroke-width: 1.0;"/><text fill="#000000" font-family="sans-serif" font-size="11" lengthAdjust="spacingAndGlyphs" textLength="48" x="26" y="577.5229">__str__()</text><polygon fill="#4177AF" points="17,583.1172,13,589.1172,21,589.1172" style="stroke: #1963A0; stroke-width: 1.0;"/><text fill="#000000" font-family="sans-serif" font-size="11" lengthAdjust="spacingAndGlyphs" textLength="56" x="26" y="590.3276">__repr__()</text><text fill="#000000" font-family="sans-serif" font-size="11" lengthAdjust="spacingAndGlyphs" textLength="0" x="30" y="603.1323"/><line style="stroke: #A80036; stroke-width: 1.0; stroke-dasharray: 1.0,2.0;" x1="7" x2="37" y1="535.3008" y2="535.3008"/><text fill="#000000" font-family="sans-serif" font-size="11" lengthAdjust="spacingAndGlyphs" textLength="105" x="37" y="538.6089">Methods - toString</text><line style="stroke: #A80036; stroke-width: 1.0; stroke-dasharray: 1.0,2.0;" x1="142" x2="172" y1="535.3008" y2="535.3008"/><polygon fill="#FFFF44" points="17,624.5313,21,628.5313,17,632.5313,13,628.5313" style="stroke: #B38D22; stroke-width: 1.0;"/><text fill="#000000" font-family="sans-serif" font-size="11" lengthAdjust="spacingAndGlyphs" textLength="40" x="26" y="632.7417">setup()</text><line style="stroke: #A80036; stroke-width: 1.0; stroke-dasharray: 1.0,2.0;" x1="7" x2="47.5" y1="616.1289" y2="616.1289"/><text fill="#000000" font-family="sans-serif" font-size="11" lengthAdjust="spacingAndGlyphs" textLength="84" x="47.5" y="619.437">Static Methods</text><line style="stroke: #A80036; stroke-width: 1.0; stroke-dasharray: 1.0,2.0;" x1="131.5" x2="172" y1="616.1289" y2="616.1289"/><!--MD5=[4b7881e1022dfa369db2c6d4d4e75944]
class Hseg--><rect fill="#FEFECE" filter="url(#fuy6aqnvbhe51)" height="653.0156" id="Hseg" style="stroke: #A80036; stroke-width: 1.5;" width="178" x="208.5" y="28.9531"/><ellipse cx="277.25" cy="44.9531" fill="#ADD1B2" rx="11" ry="11" style="stroke: #A80036; stroke-width: 1.0;"/><path d="M279.5938,40.625 L279.7656,40.7031 C279.9844,40.3906 280.1875,40.2969 280.4844,40.2969 C280.7813,40.2969 281.0625,40.4375 281.2188,40.7031 C281.3125,40.8594 281.3281,40.9844 281.3281,41.4219 L281.3281,42.8438 C281.3281,43.2656 281.2969,43.4531 281.1875,43.6094 C281.0156,43.8281 280.75,43.9688 280.4844,43.9688 C280.2656,43.9688 280.0313,43.8594 279.8906,43.7188 C279.75,43.5938 279.7188,43.4688 279.6563,43.0625 C279.5625,42.6563 279.3906,42.4375 278.9063,42.1563 C278.4375,41.9063 277.8281,41.75 277.25,41.75 C275.5156,41.75 274.2656,43.0625 274.2656,44.8438 L274.2656,45.9375 C274.2656,47.6406 275.5625,48.7344 277.6094,48.7344 C278.375,48.7344 279.0625,48.6094 279.4844,48.3438 C279.6719,48.25 279.6719,48.25 280.125,47.7656 C280.3125,47.5781 280.5156,47.5 280.7344,47.5 C281.2031,47.5 281.5938,47.8906 281.5938,48.3438 C281.5938,48.7344 281.2656,49.1875 280.6875,49.5938 C279.9375,50.1406 278.7813,50.4375 277.5625,50.4375 C274.6719,50.4375 272.5625,48.5469 272.5625,45.9688 L272.5625,44.8438 C272.5625,42.125 274.5625,40.0469 277.1875,40.0469 C278.0625,40.0469 278.6563,40.1875 279.5938,40.625 Z "/><text fill="#000000" font-family="sans-serif" font-size="12" lengthAdjust="spacingAndGlyphs" textLength="32" x="297.75" y="49.1074">Hseg</text><line style="stroke: #A80036; stroke-width: 1.5;" x1="209.5" x2="385.5" y1="60.9531" y2="60.9531"/><rect fill="none" height="6" style="stroke: #C82930; stroke-width: 1.0;" width="6" x="216.5" y="85.7578"/><text fill="#000000" font-family="sans-serif" font-size="11" lengthAdjust="spacingAndGlyphs" textLength="51" x="228.5" y="91.9683">RAW_SUF</text><rect fill="none" height="6" style="stroke: #C82930; stroke-width: 1.0;" width="6" x="216.5" y="98.5625"/><text fill="#000000" font-family="sans-serif" font-size="11" lengthAdjust="spacingAndGlyphs" textLength="77" x="228.5" y="104.7729">NUC_BIN_SUF</text><text fill="#000000" font-family="sans-serif" font-size="11" lengthAdjust="spacingAndGlyphs" textLength="0" x="232.5" y="117.5776"/><rect fill="none" height="6" style="stroke: #C82930; stroke-width: 1.0;" width="6" x="216.5" y="124.1719"/><text fill="#000000" font-family="sans-serif" font-size="11" lengthAdjust="spacingAndGlyphs" textLength="56" x="228.5" y="130.3823">JSON_SUF</text><rect fill="none" height="6" style="stroke: #C82930; stroke-width: 1.0;" width="6" x="216.5" y="136.9766"/><text fill="#000000" font-family="sans-serif" font-size="11" lengthAdjust="spacingAndGlyphs" textLength="101" x="228.5" y="143.187">JSON_SPLIT_CHAR</text><text fill="#000000" font-family="sans-serif" font-size="11" lengthAdjust="spacingAndGlyphs" textLength="0" x="232.5" y="155.9917"/><rect fill="none" height="6" style="stroke: #C82930; stroke-width: 1.0;" width="6" x="216.5" y="162.5859"/><text fill="#000000" font-family="sans-serif" font-size="11" lengthAdjust="spacingAndGlyphs" textLength="98" x="228.5" y="168.7964">CELL_SUF_REGEX</text><rect fill="none" height="6" style="stroke: #C82930; stroke-width: 1.0;" width="6" x="216.5" y="175.3906"/><text fill="#000000" font-family="sans-serif" font-size="11" lengthAdjust="spacingAndGlyphs" textLength="111" x="228.5" y="181.6011">CELL_SUF_PATTERN</text><text fill="#000000" font-family="sans-serif" font-size="11" lengthAdjust="spacingAndGlyphs" textLength="0" x="232.5" y="194.4058"/><rect fill="none" height="6" style="stroke: #C82930; stroke-width: 1.0;" width="6" x="216.5" y="201"/><text fill="#000000" font-family="sans-serif" font-size="11" lengthAdjust="spacingAndGlyphs" textLength="121" x="228.5" y="207.2104">CELL_ROI_DICT_NAME</text><rect fill="none" height="6" style="stroke: #C82930; stroke-width: 1.0;" width="6" x="216.5" y="213.8047"/><text fill="#000000" font-family="sans-serif" font-size="11" lengthAdjust="spacingAndGlyphs" textLength="118" x="228.5" y="220.0151">NUC_ROI_DICT_NAME</text><rect fill="none" height="6" style="stroke: #C82930; stroke-width: 1.0;" width="6" x="216.5" y="226.6094"/><text fill="#000000" font-family="sans-serif" font-size="11" lengthAdjust="spacingAndGlyphs" textLength="117" x="228.5" y="232.8198">VOR_ROI_DICT_NAME</text><text fill="#000000" font-family="sans-serif" font-size="11" lengthAdjust="spacingAndGlyphs" textLength="0" x="232.5" y="245.6245"/><line style="stroke: #A80036; stroke-width: 1.0; stroke-dasharray: 1.0,2.0;" x1="209.5" x2="250.5" y1="75.3555" y2="75.3555"/><text fill="#000000" font-family="sans-serif" font-size="11" lengthAdjust="spacingAndGlyphs" textLength="94" x="250.5" y="78.6636">Class Constants</text><line style="stroke: #A80036; stroke-width: 1.0; stroke-dasharray: 1.0,2.0;" x1="344.5" x2="385.5" y1="75.3555" y2="75.3555"/><ellipse cx="219.5" cy="272.0234" fill="none" rx="3" ry="3" style="stroke: #038048; stroke-width: 1.0;"/><text fill="#000000" font-family="sans-serif" font-size="11" lengthAdjust="spacingAndGlyphs" textLength="32" x="228.5" y="275.2339">exper</text><ellipse cx="219.5" cy="284.8281" fill="none" rx="3" ry="3" style="stroke: #038048; stroke-width: 1.0;"/><text fill="#000000" font-family="sans-serif" font-size="11" lengthAdjust="spacingAndGlyphs" textLength="32" x="228.5" y="288.0386">name</text><ellipse cx="219.5" cy="297.6328" fill="none" rx="3" ry="3" style="stroke: #038048; stroke-width: 1.0;"/><text fill="#000000" font-family="sans-serif" font-size="11" lengthAdjust="spacingAndGlyphs" textLength="25" x="228.5" y="300.8433">path</text><line style="stroke: #A80036; stroke-width: 1.0; stroke-dasharray: 1.0,2.0;" x1="209.5" x2="245" y1="258.6211" y2="258.6211"/><text fill="#000000" font-family="sans-serif" font-size="11" lengthAdjust="spacingAndGlyphs" textLength="105" x="245" y="261.9292">Instance Variables</text><line style="stroke: #A80036; stroke-width: 1.0; stroke-dasharray: 1.0,2.0;" x1="350" x2="385.5" y1="258.6211" y2="258.6211"/><ellipse cx="219.5" cy="327.2422" fill="#84BE84" rx="3" ry="3" style="stroke: #038048; stroke-width: 1.0;"/><text fill="#000000" font-family="sans-serif" font-size="11" lengthAdjust="spacingAndGlyphs" textLength="51" x="228.5" y="330.4526">file_dict()</text><ellipse cx="219.5" cy="340.0469" fill="#84BE84" rx="3" ry="3" style="stroke: #038048; stroke-width: 1.0;"/><text fill="#000000" font-family="sans-serif" font-size="11" lengthAdjust="spacingAndGlyphs" textLength="76" x="228.5" y="343.2573">cell_file_dict()</text><text fill="#000000" font-family="sans-serif" font-size="11" lengthAdjust="spacingAndGlyphs" textLength="0" x="232.5" y="356.062"/><ellipse cx="219.5" cy="365.6563" fill="#84BE84" rx="3" ry="3" style="stroke: #038048; stroke-width: 1.0;"/><text fill="#000000" font-family="sans-serif" font-size="11" lengthAdjust="spacingAndGlyphs" textLength="65" x="228.5" y="368.8667">raw_stack()</text><ellipse cx="219.5" cy="378.4609" fill="#84BE84" rx="3" ry="3" style="stroke: #038048; stroke-width: 1.0;"/><text fill="#000000" font-family="sans-serif" font-size="11" lengthAdjust="spacingAndGlyphs" textLength="24" x="228.5" y="381.6714">cal()</text><ellipse cx="219.5" cy="391.2656" fill="#84BE84" rx="3" ry="3" style="stroke: #038048; stroke-width: 1.0;"/><text fill="#000000" font-family="sans-serif" font-size="11" lengthAdjust="spacingAndGlyphs" textLength="51" x="228.5" y="394.4761">nuc_bin()</text><text fill="#000000" font-family="sans-serif" font-size="11" lengthAdjust="spacingAndGlyphs" textLength="0" x="232.5" y="407.2808"/><ellipse cx="219.5" cy="416.875" fill="#84BE84" rx="3" ry="3" style="stroke: #038048; stroke-width: 1.0;"/><text fill="#000000" font-family="sans-serif" font-size="11" lengthAdjust="spacingAndGlyphs" textLength="34" x="228.5" y="420.0854">cells()</text><ellipse cx="219.5" cy="429.6797" fill="#84BE84" rx="3" ry="3" style="stroke: #038048; stroke-width: 1.0;"/><text fill="#000000" font-family="sans-serif" font-size="11" lengthAdjust="spacingAndGlyphs" textLength="56" x="228.5" y="432.8901">roi_dicts()</text><text fill="#000000" font-family="sans-serif" font-size="11" lengthAdjust="spacingAndGlyphs" textLength="0" x="232.5" y="445.6948"/><line style="stroke: #A80036; stroke-width: 1.0; stroke-dasharray: 1.0,2.0;" x1="209.5" x2="268" y1="313.8398" y2="313.8398"/><text fill="#000000" font-family="sans-serif" font-size="11" lengthAdjust="spacingAndGlyphs" textLength="59" x="268" y="317.1479">Properties</text><line style="stroke: #A80036; stroke-width: 1.0; stroke-dasharray: 1.0,2.0;" x1="327" x2="385.5" y1="313.8398" y2="313.8398"/><polygon fill="#4177AF" points="219.5,468.0938,215.5,474.0938,223.5,474.0938" style="stroke: #1963A0; stroke-width: 1.0;"/><text fill="#000000" font-family="sans-serif" font-size="11" lengthAdjust="spacingAndGlyphs" textLength="88" x="228.5" y="475.3042">make_file_dict()</text><polygon fill="#4177AF" points="219.5,480.8984,215.5,486.8984,223.5,486.8984" style="stroke: #1963A0; stroke-width: 1.0;"/><text fill="#000000" font-family="sans-serif" font-size="11" lengthAdjust="spacingAndGlyphs" textLength="99" x="228.5" y="488.1089">open_raw_stack()</text><polygon fill="#4177AF" points="219.5,493.7031,215.5,499.7031,223.5,499.7031" style="stroke: #1963A0; stroke-width: 1.0;"/><text fill="#000000" font-family="sans-serif" font-size="11" lengthAdjust="spacingAndGlyphs" textLength="76" x="228.5" y="500.9136">create_cells()</text><polygon fill="#4177AF" points="219.5,506.5078,215.5,512.5078,223.5,512.5078" style="stroke: #1963A0; stroke-width: 1.0;"/><text fill="#000000" font-family="sans-serif" font-size="11" lengthAdjust="spacingAndGlyphs" textLength="77" x="228.5" y="513.7183">create_nucs()</text><polygon fill="#4177AF" points="219.5,519.3125,215.5,525.3125,223.5,525.3125" style="stroke: #1963A0; stroke-width: 1.0;"/><text fill="#000000" font-family="sans-serif" font-size="11" lengthAdjust="spacingAndGlyphs" textLength="98" x="228.5" y="526.5229">create_roi_dicts()</text><line style="stroke: #A80036; stroke-width: 1.0; stroke-dasharray: 1.0,2.0;" x1="209.5" x2="218" y1="458.6914" y2="458.6914"/><text fill="#000000" font-family="sans-serif" font-size="11" lengthAdjust="spacingAndGlyphs" textLength="159" x="218" y="461.9995">Methods - create properties</text><line style="stroke: #A80036; stroke-width: 1.0; stroke-dasharray: 1.0,2.0;" x1="377" x2="385.5" y1="458.6914" y2="458.6914"/><polygon fill="#4177AF" points="219.5,548.9219,215.5,554.9219,223.5,554.9219" style="stroke: #1963A0; stroke-width: 1.0;"/><text fill="#000000" font-family="sans-serif" font-size="11" lengthAdjust="spacingAndGlyphs" textLength="152" x="228.5" y="556.1323">get_roi_dict(roi_dict_name)</text><polygon fill="#4177AF" points="219.5,561.7266,215.5,567.7266,223.5,567.7266" style="stroke: #1963A0; stroke-width: 1.0;"/><text fill="#000000" font-family="sans-serif" font-size="11" lengthAdjust="spacingAndGlyphs" textLength="115" x="228.5" y="568.937">open_hseg_imp(suf)</text><line style="stroke: #A80036; stroke-width: 1.0; stroke-dasharray: 1.0,2.0;" x1="209.5" x2="273.5" y1="539.5195" y2="539.5195"/><text fill="#000000" font-family="sans-serif" font-size="11" lengthAdjust="spacingAndGlyphs" textLength="48" x="273.5" y="542.8276">Methods</text><line style="stroke: #A80036; stroke-width: 1.0; stroke-dasharray: 1.0,2.0;" x1="321.5" x2="385.5" y1="539.5195" y2="539.5195"/><polygon fill="#4177AF" points="219.5,591.3359,215.5,597.3359,223.5,597.3359" style="stroke: #1963A0; stroke-width: 1.0;"/><text fill="#000000" font-family="sans-serif" font-size="11" lengthAdjust="spacingAndGlyphs" textLength="64" x="228.5" y="598.5464">get_prefix()</text><polygon fill="#4177AF" points="219.5,604.1406,215.5,610.1406,223.5,610.1406" style="stroke: #1963A0; stroke-width: 1.0;"/><text fill="#000000" font-family="sans-serif" font-size="11" lengthAdjust="spacingAndGlyphs" textLength="42" x="228.5" y="611.3511">get_id()</text><polygon fill="#4177AF" points="219.5,616.9453,215.5,622.9453,223.5,622.9453" style="stroke: #1963A0; stroke-width: 1.0;"/><text fill="#000000" font-family="sans-serif" font-size="11" lengthAdjust="spacingAndGlyphs" textLength="78" x="228.5" y="624.1558">get_short_id()</text><text fill="#000000" font-family="sans-serif" font-size="11" lengthAdjust="spacingAndGlyphs" textLength="0" x="232.5" y="636.9604"/><polygon fill="#4177AF" points="219.5,642.5547,215.5,648.5547,223.5,648.5547" style="stroke: #1963A0; stroke-width: 1.0;"/><text fill="#000000" font-family="sans-serif" font-size="11" lengthAdjust="spacingAndGlyphs" textLength="48" x="228.5" y="649.7651">__str__()</text><polygon fill="#4177AF" points="219.5,655.3594,215.5,661.3594,223.5,661.3594" style="stroke: #1963A0; stroke-width: 1.0;"/><text fill="#000000" font-family="sans-serif" font-size="11" lengthAdjust="spacingAndGlyphs" textLength="56" x="228.5" y="662.5698">__repr__()</text><text fill="#000000" font-family="sans-serif" font-size="11" lengthAdjust="spacingAndGlyphs" textLength="0" x="232.5" y="675.3745"/><line style="stroke: #A80036; stroke-width: 1.0; stroke-dasharray: 1.0,2.0;" x1="209.5" x2="245" y1="581.9336" y2="581.9336"/><text fill="#000000" font-family="sans-serif" font-size="11" lengthAdjust="spacingAndGlyphs" textLength="105" x="245" y="585.2417">Methods - toString</text><line style="stroke: #A80036; stroke-width: 1.0; stroke-dasharray: 1.0,2.0;" x1="350" x2="385.5" y1="581.9336" y2="581.9336"/><!--MD5=[fea3dc74c7473bae0133d22265a91e2f]
class Cell--><rect fill="#FEFECE" filter="url(#fuy6aqnvbhe51)" height="354.5078" id="Cell" style="stroke: #A80036; stroke-width: 1.5;" width="167" x="422" y="177.9531"/><ellipse cx="490.25" cy="193.9531" fill="#ADD1B2" rx="11" ry="11" style="stroke: #A80036; stroke-width: 1.0;"/><path d="M492.5938,189.625 L492.7656,189.7031 C492.9844,189.3906 493.1875,189.2969 493.4844,189.2969 C493.7813,189.2969 494.0625,189.4375 494.2188,189.7031 C494.3125,189.8594 494.3281,189.9844 494.3281,190.4219 L494.3281,191.8438 C494.3281,192.2656 494.2969,192.4531 494.1875,192.6094 C494.0156,192.8281 493.75,192.9688 493.4844,192.9688 C493.2656,192.9688 493.0313,192.8594 492.8906,192.7188 C492.75,192.5938 492.7188,192.4688 492.6563,192.0625 C492.5625,191.6563 492.3906,191.4375 491.9063,191.1563 C491.4375,190.9063 490.8281,190.75 490.25,190.75 C488.5156,190.75 487.2656,192.0625 487.2656,193.8438 L487.2656,194.9375 C487.2656,196.6406 488.5625,197.7344 490.6094,197.7344 C491.375,197.7344 492.0625,197.6094 492.4844,197.3438 C492.6719,197.25 492.6719,197.25 493.125,196.7656 C493.3125,196.5781 493.5156,196.5 493.7344,196.5 C494.2031,196.5 494.5938,196.8906 494.5938,197.3438 C494.5938,197.7344 494.2656,198.1875 493.6875,198.5938 C492.9375,199.1406 491.7813,199.4375 490.5625,199.4375 C487.6719,199.4375 485.5625,197.5469 485.5625,194.9688 L485.5625,193.8438 C485.5625,191.125 487.5625,189.0469 490.1875,189.0469 C491.0625,189.0469 491.6563,189.1875 492.5938,189.625 Z "/><text fill="#000000" font-family="sans-serif" font-size="12" lengthAdjust="spacingAndGlyphs" textLength="22" x="510.75" y="198.1074">Cell</text><line style="stroke: #A80036; stroke-width: 1.5;" x1="423" x2="588" y1="209.9531" y2="209.9531"/><ellipse cx="433" cy="237.7578" fill="none" rx="3" ry="3" style="stroke: #038048; stroke-width: 1.0;"/><text fill="#000000" font-family="sans-serif" font-size="11" lengthAdjust="spacingAndGlyphs" textLength="28" x="442" y="240.9683">hseg</text><ellipse cx="433" cy="250.5625" fill="none" rx="3" ry="3" style="stroke: #038048; stroke-width: 1.0;"/><text fill="#000000" font-family="sans-serif" font-size="11" lengthAdjust="spacingAndGlyphs" textLength="32" x="442" y="253.7729">name</text><ellipse cx="433" cy="263.3672" fill="none" rx="3" ry="3" style="stroke: #038048; stroke-width: 1.0;"/><text fill="#000000" font-family="sans-serif" font-size="11" lengthAdjust="spacingAndGlyphs" textLength="71" x="442" y="266.5776">roi_csv_path</text><line style="stroke: #A80036; stroke-width: 1.0; stroke-dasharray: 1.0,2.0;" x1="423" x2="453" y1="224.3555" y2="224.3555"/><text fill="#000000" font-family="sans-serif" font-size="11" lengthAdjust="spacingAndGlyphs" textLength="105" x="453" y="227.6636">Instance Variables</text><line style="stroke: #A80036; stroke-width: 1.0; stroke-dasharray: 1.0,2.0;" x1="558" x2="588" y1="224.3555" y2="224.3555"/><ellipse cx="433" cy="292.9766" fill="#84BE84" rx="3" ry="3" style="stroke: #038048; stroke-width: 1.0;"/><text fill="#000000" font-family="sans-serif" font-size="11" lengthAdjust="spacingAndGlyphs" textLength="23" x="442" y="296.187">roi()</text><ellipse cx="433" cy="305.7813" fill="#84BE84" rx="3" ry="3" style="stroke: #038048; stroke-width: 1.0;"/><text fill="#000000" font-family="sans-serif" font-size="11" lengthAdjust="spacingAndGlyphs" textLength="35" x="442" y="308.9917">nucs()</text><text fill="#000000" font-family="sans-serif" font-size="11" lengthAdjust="spacingAndGlyphs" textLength="0" x="446" y="321.7964"/><line style="stroke: #A80036; stroke-width: 1.0; stroke-dasharray: 1.0,2.0;" x1="423" x2="476" y1="279.5742" y2="279.5742"/><text fill="#000000" font-family="sans-serif" font-size="11" lengthAdjust="spacingAndGlyphs" textLength="59" x="476" y="282.8823">Properties</text><line style="stroke: #A80036; stroke-width: 1.0; stroke-dasharray: 1.0,2.0;" x1="535" x2="588" y1="279.5742" y2="279.5742"/><polygon fill="#4177AF" points="433,344.1953,429,350.1953,437,350.1953" style="stroke: #1963A0; stroke-width: 1.0;"/><text fill="#000000" font-family="sans-serif" font-size="11" lengthAdjust="spacingAndGlyphs" textLength="55" x="442" y="351.4058">add_nuc()</text><polygon fill="#4177AF" points="433,357,429,363,437,363" style="stroke: #1963A0; stroke-width: 1.0;"/><text fill="#000000" font-family="sans-serif" font-size="11" lengthAdjust="spacingAndGlyphs" textLength="89" x="442" y="364.2104">create_vor_roi()</text><polygon fill="#4177AF" points="433,369.8047,429,375.8047,437,375.8047" style="stroke: #1963A0; stroke-width: 1.0;"/><text fill="#000000" font-family="sans-serif" font-size="11" lengthAdjust="spacingAndGlyphs" textLength="99" x="442" y="377.0151">creating_vor_roi()</text><polygon fill="#4177AF" points="433,382.6094,429,388.6094,437,388.6094" style="stroke: #1963A0; stroke-width: 1.0;"/><text fill="#000000" font-family="sans-serif" font-size="11" lengthAdjust="spacingAndGlyphs" textLength="93" x="442" y="389.8198">match_vor_nuc()</text><text fill="#000000" font-family="sans-serif" font-size="11" lengthAdjust="spacingAndGlyphs" textLength="0" x="446" y="402.6245"/><line style="stroke: #A80036; stroke-width: 1.0; stroke-dasharray: 1.0,2.0;" x1="423" x2="426" y1="334.793" y2="334.793"/><text fill="#000000" font-family="sans-serif" font-size="11" lengthAdjust="spacingAndGlyphs" textLength="159" x="426" y="338.1011">Methods - create properties</text><line style="stroke: #A80036; stroke-width: 1.0; stroke-dasharray: 1.0,2.0;" x1="585" x2="588" y1="334.793" y2="334.793"/><polygon fill="#4177AF" points="433,425.0234,429,431.0234,437,431.0234" style="stroke: #1963A0; stroke-width: 1.0;"/><text fill="#000000" font-family="sans-serif" font-size="11" lengthAdjust="spacingAndGlyphs" textLength="64" x="442" y="432.2339">get_prefix()</text><polygon fill="#4177AF" points="433,437.8281,429,443.8281,437,443.8281" style="stroke: #1963A0; stroke-width: 1.0;"/><text fill="#000000" font-family="sans-serif" font-size="11" lengthAdjust="spacingAndGlyphs" textLength="42" x="442" y="445.0386">get_id()</text><polygon fill="#4177AF" points="433,450.6328,429,456.6328,437,456.6328" style="stroke: #1963A0; stroke-width: 1.0;"/><text fill="#000000" font-family="sans-serif" font-size="11" lengthAdjust="spacingAndGlyphs" textLength="78" x="442" y="457.8433">get_short_id()</text><polygon fill="#4177AF" points="433,463.4375,429,469.4375,437,469.4375" style="stroke: #1963A0; stroke-width: 1.0;"/><text fill="#000000" font-family="sans-serif" font-size="11" lengthAdjust="spacingAndGlyphs" textLength="48" x="442" y="470.6479">__str__()</text><polygon fill="#4177AF" points="433,476.2422,429,482.2422,437,482.2422" style="stroke: #1963A0; stroke-width: 1.0;"/><text fill="#000000" font-family="sans-serif" font-size="11" lengthAdjust="spacingAndGlyphs" textLength="56" x="442" y="483.4526">__repr__()</text><text fill="#000000" font-family="sans-serif" font-size="11" lengthAdjust="spacingAndGlyphs" textLength="0" x="446" y="496.2573"/><line style="stroke: #A80036; stroke-width: 1.0; stroke-dasharray: 1.0,2.0;" x1="423" x2="453" y1="415.6211" y2="415.6211"/><text fill="#000000" font-family="sans-serif" font-size="11" lengthAdjust="spacingAndGlyphs" textLength="105" x="453" y="418.9292">Methods - toString</text><line style="stroke: #A80036; stroke-width: 1.0; stroke-dasharray: 1.0,2.0;" x1="558" x2="588" y1="415.6211" y2="415.6211"/><polygon fill="#FFFF44" points="433,517.6563,437,521.6563,433,525.6563,429,521.6563" style="stroke: #B38D22; stroke-width: 1.0;"/><text fill="#000000" font-family="sans-serif" font-size="11" lengthAdjust="spacingAndGlyphs" textLength="96" x="442" y="525.8667">read_roi_csv(cal)</text><line style="stroke: #A80036; stroke-width: 1.0; stroke-dasharray: 1.0,2.0;" x1="423" x2="463.5" y1="509.2539" y2="509.2539"/><text fill="#000000" font-family="sans-serif" font-size="11" lengthAdjust="spacingAndGlyphs" textLength="84" x="463.5" y="512.562">Static Methods</text><line style="stroke: #A80036; stroke-width: 1.0; stroke-dasharray: 1.0,2.0;" x1="547.5" x2="588" y1="509.2539" y2="509.2539"/><!--MD5=[e87212b985c45614750175f8f77349c3]
class Nuc--><rect fill="#FEFECE" filter="url(#fuy6aqnvbhe51)" height="244.0703" id="Nuc" style="stroke: #A80036; stroke-width: 1.5;" width="113" x="624" y="233.4531"/><ellipse cx="664.65" cy="249.4531" fill="#ADD1B2" rx="11" ry="11" style="stroke: #A80036; stroke-width: 1.0;"/><path d="M666.9938,245.125 L667.1656,245.2031 C667.3844,244.8906 667.5875,244.7969 667.8844,244.7969 C668.1813,244.7969 668.4625,244.9375 668.6188,245.2031 C668.7125,245.3594 668.7281,245.4844 668.7281,245.9219 L668.7281,247.3438 C668.7281,247.7656 668.6969,247.9531 668.5875,248.1094 C668.4156,248.3281 668.15,248.4688 667.8844,248.4688 C667.6656,248.4688 667.4313,248.3594 667.2906,248.2188 C667.15,248.0938 667.1188,247.9688 667.0563,247.5625 C666.9625,247.1563 666.7906,246.9375 666.3063,246.6563 C665.8375,246.4063 665.2281,246.25 664.65,246.25 C662.9156,246.25 661.6656,247.5625 661.6656,249.3438 L661.6656,250.4375 C661.6656,252.1406 662.9625,253.2344 665.0094,253.2344 C665.775,253.2344 666.4625,253.1094 666.8844,252.8438 C667.0719,252.75 667.0719,252.75 667.525,252.2656 C667.7125,252.0781 667.9156,252 668.1344,252 C668.6031,252 668.9938,252.3906 668.9938,252.8438 C668.9938,253.2344 668.6656,253.6875 668.0875,254.0938 C667.3375,254.6406 666.1813,254.9375 664.9625,254.9375 C662.0719,254.9375 659.9625,253.0469 659.9625,250.4688 L659.9625,249.3438 C659.9625,246.625 661.9625,244.5469 664.5875,244.5469 C665.4625,244.5469 666.0563,244.6875 666.9938,245.125 Z "/><text fill="#000000" font-family="sans-serif" font-size="12" lengthAdjust="spacingAndGlyphs" textLength="24" x="684.35" y="253.6074">Nuc</text><line style="stroke: #A80036; stroke-width: 1.5;" x1="625" x2="736" y1="265.4531" y2="265.4531"/><ellipse cx="635" cy="293.2578" fill="none" rx="3" ry="3" style="stroke: #038048; stroke-width: 1.0;"/><text fill="#000000" font-family="sans-serif" font-size="11" lengthAdjust="spacingAndGlyphs" textLength="19" x="644" y="296.4683">cell</text><ellipse cx="635" cy="306.0625" fill="none" rx="3" ry="3" style="stroke: #038048; stroke-width: 1.0;"/><text fill="#000000" font-family="sans-serif" font-size="11" lengthAdjust="spacingAndGlyphs" textLength="32" x="644" y="309.2729">name</text><ellipse cx="635" cy="318.8672" fill="none" rx="3" ry="3" style="stroke: #038048; stroke-width: 1.0;"/><text fill="#000000" font-family="sans-serif" font-size="11" lengthAdjust="spacingAndGlyphs" textLength="41" x="644" y="322.0776">id_num</text><line style="stroke: #A80036; stroke-width: 1.0; stroke-dasharray: 1.0,2.0;" x1="625" x2="628" y1="279.8555" y2="279.8555"/><text fill="#000000" font-family="sans-serif" font-size="11" lengthAdjust="spacingAndGlyphs" textLength="105" x="628" y="283.1636">Instance Variables</text><line style="stroke: #A80036; stroke-width: 1.0; stroke-dasharray: 1.0,2.0;" x1="733" x2="736" y1="279.8555" y2="279.8555"/><ellipse cx="635" cy="348.4766" fill="#84BE84" rx="3" ry="3" style="stroke: #038048; stroke-width: 1.0;"/><text fill="#000000" font-family="sans-serif" font-size="11" lengthAdjust="spacingAndGlyphs" textLength="23" x="644" y="351.687">roi()</text><ellipse cx="635" cy="361.2813" fill="#84BE84" rx="3" ry="3" style="stroke: #038048; stroke-width: 1.0;"/><text fill="#000000" font-family="sans-serif" font-size="11" lengthAdjust="spacingAndGlyphs" textLength="47" x="644" y="364.4917">vor_roi()</text><text fill="#000000" font-family="sans-serif" font-size="11" lengthAdjust="spacingAndGlyphs" textLength="0" x="648" y="377.2964"/><line style="stroke: #A80036; stroke-width: 1.0; stroke-dasharray: 1.0,2.0;" x1="625" x2="651" y1="335.0742" y2="335.0742"/><text fill="#000000" font-family="sans-serif" font-size="11" lengthAdjust="spacingAndGlyphs" textLength="59" x="651" y="338.3823">Properties</text><line style="stroke: #A80036; stroke-width: 1.0; stroke-dasharray: 1.0,2.0;" x1="710" x2="736" y1="335.0742" y2="335.0742"/><polygon fill="#4177AF" points="635,399.6953,631,405.6953,639,405.6953" style="stroke: #1963A0; stroke-width: 1.0;"/><text fill="#000000" font-family="sans-serif" font-size="11" lengthAdjust="spacingAndGlyphs" textLength="64" x="644" y="406.9058">get_prefix()</text><polygon fill="#4177AF" points="635,412.5,631,418.5,639,418.5" style="stroke: #1963A0; stroke-width: 1.0;"/><text fill="#000000" font-family="sans-serif" font-size="11" lengthAdjust="spacingAndGlyphs" textLength="42" x="644" y="419.7104">get_id()</text><polygon fill="#4177AF" points="635,425.3047,631,431.3047,639,431.3047" style="stroke: #1963A0; stroke-width: 1.0;"/><text fill="#000000" font-family="sans-serif" font-size="11" lengthAdjust="spacingAndGlyphs" textLength="78" x="644" y="432.5151">get_short_id()</text><polygon fill="#4177AF" points="635,438.1094,631,444.1094,639,444.1094" style="stroke: #1963A0; stroke-width: 1.0;"/><text fill="#000000" font-family="sans-serif" font-size="11" lengthAdjust="spacingAndGlyphs" textLength="48" x="644" y="445.3198">__str__()</text><polygon fill="#4177AF" points="635,450.9141,631,456.9141,639,456.9141" style="stroke: #1963A0; stroke-width: 1.0;"/><text fill="#000000" font-family="sans-serif" font-size="11" lengthAdjust="spacingAndGlyphs" textLength="56" x="644" y="458.1245">__repr__()</text><text fill="#000000" font-family="sans-serif" font-size="11" lengthAdjust="spacingAndGlyphs" textLength="0" x="648" y="470.9292"/><line style="stroke: #A80036; stroke-width: 1.0; stroke-dasharray: 1.0,2.0;" x1="625" x2="628" y1="390.293" y2="390.293"/><text fill="#000000" font-family="sans-serif" font-size="11" lengthAdjust="spacingAndGlyphs" textLength="105" x="628" y="393.6011">Methods - toString</text><line style="stroke: #A80036; stroke-width: 1.0; stroke-dasharray: 1.0,2.0;" x1="733" x2="736" y1="390.293" y2="390.293"/><!--MD5=[dc42af41ed6d36d1f2e7babc33f144b7]
reverse link Exper to Hseg--><path d="M186.299,355.4531 C193.583,355.4531 200.866,355.4531 208.15,355.4531 " fill="none" id="Exper&lt;-Hseg" style="stroke: #A80036; stroke-width: 1.0;"/><polygon fill="#A80036" points="173.188,355.4531,179.188,359.4531,185.188,355.4531,179.188,351.4531,173.188,355.4531" style="stroke: #A80036; stroke-width: 1.0;"/><!--MD5=[ff79a80d09bba29204b8b83a8bb3f09b]
reverse link Hseg to Cell--><path d="M399.908,355.4531 C407.148,355.4531 414.388,355.4531 421.628,355.4531 " fill="none" id="Hseg&lt;-Cell" style="stroke: #A80036; stroke-width: 1.0;"/><polygon fill="#A80036" points="386.875,355.4531,392.875,359.4531,398.875,355.4531,392.875,351.4531,386.875,355.4531" style="stroke: #A80036; stroke-width: 1.0;"/><!--MD5=[9b91e034c5c8b81019a620e9e91c4374]
reverse link Cell to Nuc--><path d="M602.477,355.4531 C609.591,355.4531 616.705,355.4531 623.819,355.4531 " fill="none" id="Cell&lt;-Nuc" style="stroke: #A80036; stroke-width: 1.0;"/><polygon fill="#A80036" points="589.24,355.4531,595.24,359.4531,601.24,355.4531,595.24,351.4531,589.24,355.4531" style="stroke: #A80036; stroke-width: 1.0;"/><!--MD5=[f2933c90d39698a1e47c9e1b7dc36286]
@startuml
title bob_py 11/25/19


skinparam componentStyle uml2
class Exper {
  .. Class Constants ..
    - IN_DEV
    - ONE_HSEG
    - CATCH
    - PRINT_PROGRESS

    - JSON_KEY_SLICES
    - JSON_KEY_CHANNELS
    - JSON_KEY_CALC
    - JSON_SUF
    - JSON_SPLIT_CHAR

    - TEMP_OUT_DIR

  .. Instance Variables ..
    + name
    + path
  .. Properties ..
    + hsegs()
    + hseg_dict()
    + channels()
    + prj_method_dict()
    + hseg_slices()
    + calc_dict()

  .. Methods - create properties ..
    ~ load_json_info()
    ~ create_hsegs()
  .. Methods ..
    ~ create_out_dir()
    ~ get_channel_name()
  .. Methods - toString ..
      ~ get_prefix()
      ~ get_id()
      ~ __str__()
      ~ __repr__()

  .. Static Methods ..
    # setup()
}

class Hseg {
  .. Class Constants ..
    - RAW_SUF
    - NUC_BIN_SUF

    - JSON_SUF
    - JSON_SPLIT_CHAR

    - CELL_SUF_REGEX
    - CELL_SUF_PATTERN

    - CELL_ROI_DICT_NAME
    - NUC_ROI_DICT_NAME
    - VOR_ROI_DICT_NAME

  .. Instance Variables ..
    + exper
    + name
    + path
  .. Properties ..
    + file_dict()
    + cell_file_dict()

    + raw_stack()
    + cal()
    + nuc_bin()

    + cells()
    + roi_dicts()

  .. Methods - create properties ..
    ~ make_file_dict()
    ~ open_raw_stack()
    ~ create_cells()
    ~ create_nucs()
    ~ create_roi_dicts()
  .. Methods ..
    ~ get_roi_dict(roi_dict_name)
    ~ open_hseg_imp(suf)
  .. Methods - toString ..
    ~ get_prefix()
    ~ get_id()
    ~ get_short_id()

    ~ __str__()
    ~ __repr__()

}

class Cell {
  .. Instance Variables ..
    + hseg
    + name
    + roi_csv_path
  .. Properties ..
    + roi()
    + nucs()

  .. Methods - create properties ..
    ~ add_nuc()
    ~ create_vor_roi()
    ~ creating_vor_roi()
    ~ match_vor_nuc()

  .. Methods - toString ..
      ~ get_prefix()
      ~ get_id()
      ~ get_short_id()
      ~ __str__()
      ~ __repr__()

  .. Static Methods ..
    # read_roi_csv(cal)
}

class Nuc {
  .. Instance Variables ..
    + cell
    + name
    + id_num
  .. Properties ..
    + roi()
    + vor_roi()

  .. Methods - toString ..
      ~ get_prefix()
      ~ get_id()
      ~ get_short_id()
      ~ __str__()
      ~ __repr__()

}


Exper *-right- Hseg
Hseg *-right- Cell
Cell *-right- Nuc
@enduml

PlantUML version 1.2019.12(Sun Nov 03 10:24:54 UTC 2019)
(GPL source distribution)
Java Runtime: Java(TM) SE Runtime Environment
JVM: Java HotSpot(TM) 64-Bit Server VM
Java Version: 1.7.0_25-b15
Operating System: Linux
Default Encoding: UTF-8
Language: en
Country: US
--></g></svg>