<?xml version="1.0" encoding="UTF-8" standalone="no"?><svg xmlns="http://www.w3.org/2000/svg" xmlns:xlink="http://www.w3.org/1999/xlink" contentScriptType="application/ecmascript" contentStyleType="text/css" height="326px" preserveAspectRatio="none" style="width:639px;height:326px;" version="1.1" viewBox="0 0 639 326" width="639px" zoomAndPan="magnify"><defs><filter height="300%" id="fd6z9ctrijes8" width="300%" x="-1" y="-1"><feGaussianBlur result="blurOut" stdDeviation="2.0"/><feColorMatrix in="blurOut" result="blurOut2" type="matrix" values="0 0 0 0 0 0 0 0 0 0 0 0 0 0 0 0 0 0 .4 0"/><feOffset dx="4.0" dy="4.0" in="blurOut2" result="blurOut3"/><feBlend in="SourceGraphic" in2="blurOut3" mode="normal"/></filter></defs><g><text fill="#000000" font-family="sans-serif" font-size="18" lengthAdjust="spacingAndGlyphs" textLength="148" x="249.5" y="16.708">bob_py 11/25/19</text><!--MD5=[23ecbb7afd56fbca3966f61bc3cf15b2]
class Exper--><rect fill="#FEFECE" filter="url(#fd6z9ctrijes8)" height="286.4844" id="Exper" style="stroke: #A80036; stroke-width: 1.5;" width="140" x="6" y="28.9531"/><ellipse cx="54.25" cy="44.9531" fill="#ADD1B2" rx="11" ry="11" style="stroke: #A80036; stroke-width: 1.0;"/><path d="M56.5938,40.625 L56.7656,40.7031 C56.9844,40.3906 57.1875,40.2969 57.4844,40.2969 C57.7813,40.2969 58.0625,40.4375 58.2188,40.7031 C58.3125,40.8594 58.3281,40.9844 58.3281,41.4219 L58.3281,42.8438 C58.3281,43.2656 58.2969,43.4531 58.1875,43.6094 C58.0156,43.8281 57.75,43.9688 57.4844,43.9688 C57.2656,43.9688 57.0313,43.8594 56.8906,43.7188 C56.75,43.5938 56.7188,43.4688 56.6563,43.0625 C56.5625,42.6563 56.3906,42.4375 55.9063,42.1563 C55.4375,41.9063 54.8281,41.75 54.25,41.75 C52.5156,41.75 51.2656,43.0625 51.2656,44.8438 L51.2656,45.9375 C51.2656,47.6406 52.5625,48.7344 54.6094,48.7344 C55.375,48.7344 56.0625,48.6094 56.4844,48.3438 C56.6719,48.25 56.6719,48.25 57.125,47.7656 C57.3125,47.5781 57.5156,47.5 57.7344,47.5 C58.2031,47.5 58.5938,47.8906 58.5938,48.3438 C58.5938,48.7344 58.2656,49.1875 57.6875,49.5938 C56.9375,50.1406 55.7813,50.4375 54.5625,50.4375 C51.6719,50.4375 49.5625,48.5469 49.5625,45.9688 L49.5625,44.8438 C49.5625,42.125 51.5625,40.0469 54.1875,40.0469 C55.0625,40.0469 55.6563,40.1875 56.5938,40.625 Z "/><text fill="#000000" font-family="sans-serif" font-size="12" lengthAdjust="spacingAndGlyphs" textLength="35" x="74.75" y="49.1074">Exper</text><line style="stroke: #A80036; stroke-width: 1.5;" x1="7" x2="145" y1="60.9531" y2="60.9531"/><ellipse cx="17" cy="88.7578" fill="none" rx="3" ry="3" style="stroke: #038048; stroke-width: 1.0;"/><text fill="#000000" font-family="sans-serif" font-size="11" lengthAdjust="spacingAndGlyphs" textLength="32" x="26" y="91.9683">name</text><ellipse cx="17" cy="101.5625" fill="none" rx="3" ry="3" style="stroke: #038048; stroke-width: 1.0;"/><text fill="#000000" font-family="sans-serif" font-size="11" lengthAdjust="spacingAndGlyphs" textLength="25" x="26" y="104.7729">path</text><text fill="#000000" font-family="sans-serif" font-size="11" lengthAdjust="spacingAndGlyphs" textLength="0" x="30" y="117.5776"/><line style="stroke: #A80036; stroke-width: 1.0; stroke-dasharray: 1.0,2.0;" x1="7" x2="49.5" y1="75.3555" y2="75.3555"/><text fill="#000000" font-family="sans-serif" font-size="11" lengthAdjust="spacingAndGlyphs" textLength="53" x="49.5" y="78.6636">Variables</text><line style="stroke: #A80036; stroke-width: 1.0; stroke-dasharray: 1.0,2.0;" x1="102.5" x2="145" y1="75.3555" y2="75.3555"/><ellipse cx="17" cy="143.9766" fill="#84BE84" rx="3" ry="3" style="stroke: #038048; stroke-width: 1.0;"/><text fill="#000000" font-family="sans-serif" font-size="11" lengthAdjust="spacingAndGlyphs" textLength="43" x="26" y="147.187">hsegs()</text><ellipse cx="17" cy="156.7813" fill="#84BE84" rx="3" ry="3" style="stroke: #038048; stroke-width: 1.0;"/><text fill="#000000" font-family="sans-serif" font-size="11" lengthAdjust="spacingAndGlyphs" textLength="62" x="26" y="159.9917">hseg_dict()</text><ellipse cx="17" cy="169.5859" fill="#84BE84" rx="3" ry="3" style="stroke: #038048; stroke-width: 1.0;"/><text fill="#000000" font-family="sans-serif" font-size="11" lengthAdjust="spacingAndGlyphs" textLength="59" x="26" y="172.7964">channels()</text><ellipse cx="17" cy="182.3906" fill="#84BE84" rx="3" ry="3" style="stroke: #038048; stroke-width: 1.0;"/><text fill="#000000" font-family="sans-serif" font-size="11" lengthAdjust="spacingAndGlyphs" textLength="98" x="26" y="185.6011">prj_method_dict()</text><ellipse cx="17" cy="195.1953" fill="#84BE84" rx="3" ry="3" style="stroke: #038048; stroke-width: 1.0;"/><text fill="#000000" font-family="sans-serif" font-size="11" lengthAdjust="spacingAndGlyphs" textLength="75" x="26" y="198.4058">hseg_slices()</text><ellipse cx="17" cy="208" fill="#84BE84" rx="3" ry="3" style="stroke: #038048; stroke-width: 1.0;"/><text fill="#000000" font-family="sans-serif" font-size="11" lengthAdjust="spacingAndGlyphs" textLength="56" x="26" y="211.2104">calc_dict()</text><text fill="#000000" font-family="sans-serif" font-size="11" lengthAdjust="spacingAndGlyphs" textLength="0" x="30" y="224.0151"/><line style="stroke: #A80036; stroke-width: 1.0; stroke-dasharray: 1.0,2.0;" x1="7" x2="46.5" y1="130.5742" y2="130.5742"/><text fill="#000000" font-family="sans-serif" font-size="11" lengthAdjust="spacingAndGlyphs" textLength="59" x="46.5" y="133.8823">Properties</text><line style="stroke: #A80036; stroke-width: 1.0; stroke-dasharray: 1.0,2.0;" x1="105.5" x2="145" y1="130.5742" y2="130.5742"/><polygon fill="#4177AF" points="17,246.4141,13,252.4141,21,252.4141" style="stroke: #1963A0; stroke-width: 1.0;"/><text fill="#000000" font-family="sans-serif" font-size="11" lengthAdjust="spacingAndGlyphs" textLength="89" x="26" y="253.6245">create_out_dir()</text><polygon fill="#4177AF" points="17,259.2188,13,265.2188,21,265.2188" style="stroke: #1963A0; stroke-width: 1.0;"/><text fill="#000000" font-family="sans-serif" font-size="11" lengthAdjust="spacingAndGlyphs" textLength="114" x="26" y="266.4292">get_channel_name()</text><text fill="#000000" font-family="sans-serif" font-size="11" lengthAdjust="spacingAndGlyphs" textLength="0" x="30" y="279.2339"/><line style="stroke: #A80036; stroke-width: 1.0; stroke-dasharray: 1.0,2.0;" x1="7" x2="52" y1="237.0117" y2="237.0117"/><text fill="#000000" font-family="sans-serif" font-size="11" lengthAdjust="spacingAndGlyphs" textLength="48" x="52" y="240.3198">Methods</text><line style="stroke: #A80036; stroke-width: 1.0; stroke-dasharray: 1.0,2.0;" x1="100" x2="145" y1="237.0117" y2="237.0117"/><polygon fill="#FFFF44" points="17,300.6328,21,304.6328,17,308.6328,13,304.6328" style="stroke: #B38D22; stroke-width: 1.0;"/><text fill="#000000" font-family="sans-serif" font-size="11" lengthAdjust="spacingAndGlyphs" textLength="40" x="26" y="308.8433">setup()</text><line style="stroke: #A80036; stroke-width: 1.0; stroke-dasharray: 1.0,2.0;" x1="7" x2="34" y1="292.2305" y2="292.2305"/><text fill="#000000" font-family="sans-serif" font-size="11" lengthAdjust="spacingAndGlyphs" textLength="84" x="34" y="295.5386">Static Methods</text><line style="stroke: #A80036; stroke-width: 1.0; stroke-dasharray: 1.0,2.0;" x1="118" x2="145" y1="292.2305" y2="292.2305"/><!--MD5=[4b7881e1022dfa369db2c6d4d4e75944]
class Hseg--><rect fill="#FEFECE" filter="url(#fd6z9ctrijes8)" height="269.6797" id="Hseg" style="stroke: #A80036; stroke-width: 1.5;" width="141" x="181.5" y="36.9531"/><ellipse cx="231.75" cy="52.9531" fill="#ADD1B2" rx="11" ry="11" style="stroke: #A80036; stroke-width: 1.0;"/><path d="M234.0938,48.625 L234.2656,48.7031 C234.4844,48.3906 234.6875,48.2969 234.9844,48.2969 C235.2813,48.2969 235.5625,48.4375 235.7188,48.7031 C235.8125,48.8594 235.8281,48.9844 235.8281,49.4219 L235.8281,50.8438 C235.8281,51.2656 235.7969,51.4531 235.6875,51.6094 C235.5156,51.8281 235.25,51.9688 234.9844,51.9688 C234.7656,51.9688 234.5313,51.8594 234.3906,51.7188 C234.25,51.5938 234.2188,51.4688 234.1563,51.0625 C234.0625,50.6563 233.8906,50.4375 233.4063,50.1563 C232.9375,49.9063 232.3281,49.75 231.75,49.75 C230.0156,49.75 228.7656,51.0625 228.7656,52.8438 L228.7656,53.9375 C228.7656,55.6406 230.0625,56.7344 232.1094,56.7344 C232.875,56.7344 233.5625,56.6094 233.9844,56.3438 C234.1719,56.25 234.1719,56.25 234.625,55.7656 C234.8125,55.5781 235.0156,55.5 235.2344,55.5 C235.7031,55.5 236.0938,55.8906 236.0938,56.3438 C236.0938,56.7344 235.7656,57.1875 235.1875,57.5938 C234.4375,58.1406 233.2813,58.4375 232.0625,58.4375 C229.1719,58.4375 227.0625,56.5469 227.0625,53.9688 L227.0625,52.8438 C227.0625,50.125 229.0625,48.0469 231.6875,48.0469 C232.5625,48.0469 233.1563,48.1875 234.0938,48.625 Z "/><text fill="#000000" font-family="sans-serif" font-size="12" lengthAdjust="spacingAndGlyphs" textLength="32" x="252.25" y="57.1074">Hseg</text><line style="stroke: #A80036; stroke-width: 1.5;" x1="182.5" x2="321.5" y1="68.9531" y2="68.9531"/><ellipse cx="192.5" cy="96.7578" fill="none" rx="3" ry="3" style="stroke: #038048; stroke-width: 1.0;"/><text fill="#000000" font-family="sans-serif" font-size="11" lengthAdjust="spacingAndGlyphs" textLength="32" x="201.5" y="99.9683">exper</text><ellipse cx="192.5" cy="109.5625" fill="none" rx="3" ry="3" style="stroke: #038048; stroke-width: 1.0;"/><text fill="#000000" font-family="sans-serif" font-size="11" lengthAdjust="spacingAndGlyphs" textLength="32" x="201.5" y="112.7729">name</text><ellipse cx="192.5" cy="122.3672" fill="none" rx="3" ry="3" style="stroke: #038048; stroke-width: 1.0;"/><text fill="#000000" font-family="sans-serif" font-size="11" lengthAdjust="spacingAndGlyphs" textLength="25" x="201.5" y="125.5776">path</text><text fill="#000000" font-family="sans-serif" font-size="11" lengthAdjust="spacingAndGlyphs" textLength="0" x="205.5" y="138.3823"/><line style="stroke: #A80036; stroke-width: 1.0; stroke-dasharray: 1.0,2.0;" x1="182.5" x2="225.5" y1="83.3555" y2="83.3555"/><text fill="#000000" font-family="sans-serif" font-size="11" lengthAdjust="spacingAndGlyphs" textLength="53" x="225.5" y="86.6636">Variables</text><line style="stroke: #A80036; stroke-width: 1.0; stroke-dasharray: 1.0,2.0;" x1="278.5" x2="321.5" y1="83.3555" y2="83.3555"/><ellipse cx="192.5" cy="164.7813" fill="#84BE84" rx="3" ry="3" style="stroke: #038048; stroke-width: 1.0;"/><text fill="#000000" font-family="sans-serif" font-size="11" lengthAdjust="spacingAndGlyphs" textLength="51" x="201.5" y="167.9917">file_dict()</text><ellipse cx="192.5" cy="177.5859" fill="#84BE84" rx="3" ry="3" style="stroke: #038048; stroke-width: 1.0;"/><text fill="#000000" font-family="sans-serif" font-size="11" lengthAdjust="spacingAndGlyphs" textLength="76" x="201.5" y="180.7964">cell_file_dict()</text><ellipse cx="192.5" cy="190.3906" fill="#84BE84" rx="3" ry="3" style="stroke: #038048; stroke-width: 1.0;"/><text fill="#000000" font-family="sans-serif" font-size="11" lengthAdjust="spacingAndGlyphs" textLength="65" x="201.5" y="193.6011">raw_stack()</text><ellipse cx="192.5" cy="203.1953" fill="#84BE84" rx="3" ry="3" style="stroke: #038048; stroke-width: 1.0;"/><text fill="#000000" font-family="sans-serif" font-size="11" lengthAdjust="spacingAndGlyphs" textLength="24" x="201.5" y="206.4058">cal()</text><ellipse cx="192.5" cy="216" fill="#84BE84" rx="3" ry="3" style="stroke: #038048; stroke-width: 1.0;"/><text fill="#000000" font-family="sans-serif" font-size="11" lengthAdjust="spacingAndGlyphs" textLength="51" x="201.5" y="219.2104">nuc_bin()</text><ellipse cx="192.5" cy="228.8047" fill="#84BE84" rx="3" ry="3" style="stroke: #038048; stroke-width: 1.0;"/><text fill="#000000" font-family="sans-serif" font-size="11" lengthAdjust="spacingAndGlyphs" textLength="34" x="201.5" y="232.0151">cells()</text><ellipse cx="192.5" cy="241.6094" fill="#84BE84" rx="3" ry="3" style="stroke: #038048; stroke-width: 1.0;"/><text fill="#000000" font-family="sans-serif" font-size="11" lengthAdjust="spacingAndGlyphs" textLength="56" x="201.5" y="244.8198">roi_dicts()</text><text fill="#000000" font-family="sans-serif" font-size="11" lengthAdjust="spacingAndGlyphs" textLength="0" x="205.5" y="257.6245"/><line style="stroke: #A80036; stroke-width: 1.0; stroke-dasharray: 1.0,2.0;" x1="182.5" x2="222.5" y1="151.3789" y2="151.3789"/><text fill="#000000" font-family="sans-serif" font-size="11" lengthAdjust="spacingAndGlyphs" textLength="59" x="222.5" y="154.687">Properties</text><line style="stroke: #A80036; stroke-width: 1.0; stroke-dasharray: 1.0,2.0;" x1="281.5" x2="321.5" y1="151.3789" y2="151.3789"/><polygon fill="#4177AF" points="192.5,280.0234,188.5,286.0234,196.5,286.0234" style="stroke: #1963A0; stroke-width: 1.0;"/><text fill="#000000" font-family="sans-serif" font-size="11" lengthAdjust="spacingAndGlyphs" textLength="105" x="201.5" y="287.2339">get_roi_dict(name)</text><polygon fill="#4177AF" points="192.5,292.8281,188.5,298.8281,196.5,298.8281" style="stroke: #1963A0; stroke-width: 1.0;"/><text fill="#000000" font-family="sans-serif" font-size="11" lengthAdjust="spacingAndGlyphs" textLength="115" x="201.5" y="300.0386">open_hseg_imp(suf)</text><line style="stroke: #A80036; stroke-width: 1.0; stroke-dasharray: 1.0,2.0;" x1="182.5" x2="228" y1="270.6211" y2="270.6211"/><text fill="#000000" font-family="sans-serif" font-size="11" lengthAdjust="spacingAndGlyphs" textLength="48" x="228" y="273.9292">Methods</text><line style="stroke: #A80036; stroke-width: 1.0; stroke-dasharray: 1.0,2.0;" x1="276" x2="321.5" y1="270.6211" y2="270.6211"/><!--MD5=[fea3dc74c7473bae0133d22265a91e2f]
class Cell--><rect fill="#FEFECE" filter="url(#fd6z9ctrijes8)" height="235.2656" id="Cell" style="stroke: #A80036; stroke-width: 1.5;" width="122" x="358" y="54.4531"/><ellipse cx="403.75" cy="70.4531" fill="#ADD1B2" rx="11" ry="11" style="stroke: #A80036; stroke-width: 1.0;"/><path d="M406.0938,66.125 L406.2656,66.2031 C406.4844,65.8906 406.6875,65.7969 406.9844,65.7969 C407.2813,65.7969 407.5625,65.9375 407.7188,66.2031 C407.8125,66.3594 407.8281,66.4844 407.8281,66.9219 L407.8281,68.3438 C407.8281,68.7656 407.7969,68.9531 407.6875,69.1094 C407.5156,69.3281 407.25,69.4688 406.9844,69.4688 C406.7656,69.4688 406.5313,69.3594 406.3906,69.2188 C406.25,69.0938 406.2188,68.9688 406.1563,68.5625 C406.0625,68.1563 405.8906,67.9375 405.4063,67.6563 C404.9375,67.4063 404.3281,67.25 403.75,67.25 C402.0156,67.25 400.7656,68.5625 400.7656,70.3438 L400.7656,71.4375 C400.7656,73.1406 402.0625,74.2344 404.1094,74.2344 C404.875,74.2344 405.5625,74.1094 405.9844,73.8438 C406.1719,73.75 406.1719,73.75 406.625,73.2656 C406.8125,73.0781 407.0156,73 407.2344,73 C407.7031,73 408.0938,73.3906 408.0938,73.8438 C408.0938,74.2344 407.7656,74.6875 407.1875,75.0938 C406.4375,75.6406 405.2813,75.9375 404.0625,75.9375 C401.1719,75.9375 399.0625,74.0469 399.0625,71.4688 L399.0625,70.3438 C399.0625,67.625 401.0625,65.5469 403.6875,65.5469 C404.5625,65.5469 405.1563,65.6875 406.0938,66.125 Z "/><text fill="#000000" font-family="sans-serif" font-size="12" lengthAdjust="spacingAndGlyphs" textLength="22" x="424.25" y="74.6074">Cell</text><line style="stroke: #A80036; stroke-width: 1.5;" x1="359" x2="479" y1="86.4531" y2="86.4531"/><ellipse cx="369" cy="114.2578" fill="none" rx="3" ry="3" style="stroke: #038048; stroke-width: 1.0;"/><text fill="#000000" font-family="sans-serif" font-size="11" lengthAdjust="spacingAndGlyphs" textLength="28" x="378" y="117.4683">hseg</text><ellipse cx="369" cy="127.0625" fill="none" rx="3" ry="3" style="stroke: #038048; stroke-width: 1.0;"/><text fill="#000000" font-family="sans-serif" font-size="11" lengthAdjust="spacingAndGlyphs" textLength="32" x="378" y="130.2729">name</text><ellipse cx="369" cy="139.8672" fill="none" rx="3" ry="3" style="stroke: #038048; stroke-width: 1.0;"/><text fill="#000000" font-family="sans-serif" font-size="11" lengthAdjust="spacingAndGlyphs" textLength="71" x="378" y="143.0776">roi_csv_path</text><text fill="#000000" font-family="sans-serif" font-size="11" lengthAdjust="spacingAndGlyphs" textLength="0" x="382" y="155.8823"/><line style="stroke: #A80036; stroke-width: 1.0; stroke-dasharray: 1.0,2.0;" x1="359" x2="392.5" y1="100.8555" y2="100.8555"/><text fill="#000000" font-family="sans-serif" font-size="11" lengthAdjust="spacingAndGlyphs" textLength="53" x="392.5" y="104.1636">Variables</text><line style="stroke: #A80036; stroke-width: 1.0; stroke-dasharray: 1.0,2.0;" x1="445.5" x2="479" y1="100.8555" y2="100.8555"/><ellipse cx="369" cy="182.2813" fill="#84BE84" rx="3" ry="3" style="stroke: #038048; stroke-width: 1.0;"/><text fill="#000000" font-family="sans-serif" font-size="11" lengthAdjust="spacingAndGlyphs" textLength="23" x="378" y="185.4917">roi()</text><ellipse cx="369" cy="195.0859" fill="#84BE84" rx="3" ry="3" style="stroke: #038048; stroke-width: 1.0;"/><text fill="#000000" font-family="sans-serif" font-size="11" lengthAdjust="spacingAndGlyphs" textLength="35" x="378" y="198.2964">nucs()</text><text fill="#000000" font-family="sans-serif" font-size="11" lengthAdjust="spacingAndGlyphs" textLength="0" x="382" y="211.1011"/><line style="stroke: #A80036; stroke-width: 1.0; stroke-dasharray: 1.0,2.0;" x1="359" x2="389.5" y1="168.8789" y2="168.8789"/><text fill="#000000" font-family="sans-serif" font-size="11" lengthAdjust="spacingAndGlyphs" textLength="59" x="389.5" y="172.187">Properties</text><line style="stroke: #A80036; stroke-width: 1.0; stroke-dasharray: 1.0,2.0;" x1="448.5" x2="479" y1="168.8789" y2="168.8789"/><polygon fill="#4177AF" points="369,233.5,365,239.5,373,239.5" style="stroke: #1963A0; stroke-width: 1.0;"/><text fill="#000000" font-family="sans-serif" font-size="11" lengthAdjust="spacingAndGlyphs" textLength="55" x="378" y="240.7104">add_nuc()</text><text fill="#000000" font-family="sans-serif" font-size="11" lengthAdjust="spacingAndGlyphs" textLength="0" x="382" y="253.5151"/><line style="stroke: #A80036; stroke-width: 1.0; stroke-dasharray: 1.0,2.0;" x1="359" x2="395" y1="224.0977" y2="224.0977"/><text fill="#000000" font-family="sans-serif" font-size="11" lengthAdjust="spacingAndGlyphs" textLength="48" x="395" y="227.4058">Methods</text><line style="stroke: #A80036; stroke-width: 1.0; stroke-dasharray: 1.0,2.0;" x1="443" x2="479" y1="224.0977" y2="224.0977"/><polygon fill="#FFFF44" points="369,274.9141,373,278.9141,369,282.9141,365,278.9141" style="stroke: #B38D22; stroke-width: 1.0;"/><text fill="#000000" font-family="sans-serif" font-size="11" lengthAdjust="spacingAndGlyphs" textLength="96" x="378" y="283.1245">read_roi_csv(cal)</text><line style="stroke: #A80036; stroke-width: 1.0; stroke-dasharray: 1.0,2.0;" x1="359" x2="377" y1="266.5117" y2="266.5117"/><text fill="#000000" font-family="sans-serif" font-size="11" lengthAdjust="spacingAndGlyphs" textLength="84" x="377" y="269.8198">Static Methods</text><line style="stroke: #A80036; stroke-width: 1.0; stroke-dasharray: 1.0,2.0;" x1="461" x2="479" y1="266.5117" y2="266.5117"/><!--MD5=[e87212b985c45614750175f8f77349c3]
class Nuc--><rect fill="#FEFECE" filter="url(#fd6z9ctrijes8)" height="150.4375" id="Nuc" style="stroke: #A80036; stroke-width: 1.5;" width="113" x="515.5" y="96.9531"/><ellipse cx="556.15" cy="112.9531" fill="#ADD1B2" rx="11" ry="11" style="stroke: #A80036; stroke-width: 1.0;"/><path d="M558.4938,108.625 L558.6656,108.7031 C558.8844,108.3906 559.0875,108.2969 559.3844,108.2969 C559.6813,108.2969 559.9625,108.4375 560.1188,108.7031 C560.2125,108.8594 560.2281,108.9844 560.2281,109.4219 L560.2281,110.8438 C560.2281,111.2656 560.1969,111.4531 560.0875,111.6094 C559.9156,111.8281 559.65,111.9688 559.3844,111.9688 C559.1656,111.9688 558.9313,111.8594 558.7906,111.7188 C558.65,111.5938 558.6188,111.4688 558.5563,111.0625 C558.4625,110.6563 558.2906,110.4375 557.8063,110.1563 C557.3375,109.9063 556.7281,109.75 556.15,109.75 C554.4156,109.75 553.1656,111.0625 553.1656,112.8438 L553.1656,113.9375 C553.1656,115.6406 554.4625,116.7344 556.5094,116.7344 C557.275,116.7344 557.9625,116.6094 558.3844,116.3438 C558.5719,116.25 558.5719,116.25 559.025,115.7656 C559.2125,115.5781 559.4156,115.5 559.6344,115.5 C560.1031,115.5 560.4938,115.8906 560.4938,116.3438 C560.4938,116.7344 560.1656,117.1875 559.5875,117.5938 C558.8375,118.1406 557.6813,118.4375 556.4625,118.4375 C553.5719,118.4375 551.4625,116.5469 551.4625,113.9688 L551.4625,112.8438 C551.4625,110.125 553.4625,108.0469 556.0875,108.0469 C556.9625,108.0469 557.5563,108.1875 558.4938,108.625 Z "/><text fill="#000000" font-family="sans-serif" font-size="12" lengthAdjust="spacingAndGlyphs" textLength="24" x="575.85" y="117.1074">Nuc</text><line style="stroke: #A80036; stroke-width: 1.5;" x1="516.5" x2="627.5" y1="128.9531" y2="128.9531"/><ellipse cx="526.5" cy="156.7578" fill="none" rx="3" ry="3" style="stroke: #038048; stroke-width: 1.0;"/><text fill="#000000" font-family="sans-serif" font-size="11" lengthAdjust="spacingAndGlyphs" textLength="19" x="535.5" y="159.9683">cell</text><ellipse cx="526.5" cy="169.5625" fill="none" rx="3" ry="3" style="stroke: #038048; stroke-width: 1.0;"/><text fill="#000000" font-family="sans-serif" font-size="11" lengthAdjust="spacingAndGlyphs" textLength="32" x="535.5" y="172.7729">name</text><ellipse cx="526.5" cy="182.3672" fill="none" rx="3" ry="3" style="stroke: #038048; stroke-width: 1.0;"/><text fill="#000000" font-family="sans-serif" font-size="11" lengthAdjust="spacingAndGlyphs" textLength="41" x="535.5" y="185.5776">id_num</text><text fill="#000000" font-family="sans-serif" font-size="11" lengthAdjust="spacingAndGlyphs" textLength="0" x="539.5" y="198.3823"/><line style="stroke: #A80036; stroke-width: 1.0; stroke-dasharray: 1.0,2.0;" x1="516.5" x2="519.5" y1="143.3555" y2="143.3555"/><text fill="#000000" font-family="sans-serif" font-size="11" lengthAdjust="spacingAndGlyphs" textLength="105" x="519.5" y="146.6636">Instance Variables</text><line style="stroke: #A80036; stroke-width: 1.0; stroke-dasharray: 1.0,2.0;" x1="624.5" x2="627.5" y1="143.3555" y2="143.3555"/><ellipse cx="526.5" cy="224.7813" fill="#84BE84" rx="3" ry="3" style="stroke: #038048; stroke-width: 1.0;"/><text fill="#000000" font-family="sans-serif" font-size="11" lengthAdjust="spacingAndGlyphs" textLength="23" x="535.5" y="227.9917">roi()</text><ellipse cx="526.5" cy="237.5859" fill="#84BE84" rx="3" ry="3" style="stroke: #038048; stroke-width: 1.0;"/><text fill="#000000" font-family="sans-serif" font-size="11" lengthAdjust="spacingAndGlyphs" textLength="47" x="535.5" y="240.7964">vor_roi()</text><line style="stroke: #A80036; stroke-width: 1.0; stroke-dasharray: 1.0,2.0;" x1="516.5" x2="542.5" y1="211.3789" y2="211.3789"/><text fill="#000000" font-family="sans-serif" font-size="11" lengthAdjust="spacingAndGlyphs" textLength="59" x="542.5" y="214.687">Properties</text><line style="stroke: #A80036; stroke-width: 1.0; stroke-dasharray: 1.0,2.0;" x1="601.5" x2="627.5" y1="211.3789" y2="211.3789"/><!--MD5=[dc42af41ed6d36d1f2e7babc33f144b7]
reverse link Exper to Hseg--><path d="M159.308,171.9531 C166.631,171.9531 173.955,171.9531 181.279,171.9531 " fill="none" id="Exper&lt;-Hseg" style="stroke: #A80036; stroke-width: 1.0;"/><polygon fill="#A80036" points="146.125,171.9531,152.125,175.9531,158.125,171.9531,152.125,167.9531,146.125,171.9531" style="stroke: #A80036; stroke-width: 1.0;"/><!--MD5=[ff79a80d09bba29204b8b83a8bb3f09b]
reverse link Hseg to Cell--><path d="M335.887,171.9531 C343.17,171.9531 350.452,171.9531 357.734,171.9531 " fill="none" id="Hseg&lt;-Cell" style="stroke: #A80036; stroke-width: 1.0;"/><polygon fill="#A80036" points="322.779,171.9531,328.779,175.9531,334.779,171.9531,328.779,167.9531,322.779,171.9531" style="stroke: #A80036; stroke-width: 1.0;"/><!--MD5=[9b91e034c5c8b81019a620e9e91c4374]
reverse link Cell to Nuc--><path d="M493.43,171.9531 C500.746,171.9531 508.063,171.9531 515.379,171.9531 " fill="none" id="Cell&lt;-Nuc" style="stroke: #A80036; stroke-width: 1.0;"/><polygon fill="#A80036" points="480.26,171.9531,486.26,175.9531,492.26,171.9531,486.26,167.9531,480.26,171.9531" style="stroke: #A80036; stroke-width: 1.0;"/><!--MD5=[664ba5768d67e8e42cfbc45b93352846]
@startuml
title bob_py 11/25/19

skinparam componentStyle uml2
class Exper {
  .. Variables ..
    + name
    + path
    
  .. Properties ..
    + hsegs()
    + hseg_dict()
    + channels()
    + prj_method_dict()
    + hseg_slices()
    + calc_dict()
    
  .. Methods ..
    ~ create_out_dir()
    ~ get_channel_name()
      
  .. Static Methods ..
    # setup()
}

class Hseg {
  .. Variables ..
    + exper
    + name
    + path
    
  .. Properties ..
    + file_dict()
    + cell_file_dict()
    + raw_stack()
    + cal()
    + nuc_bin()
    + cells()
    + roi_dicts()
    
  .. Methods ..
    ~ get_roi_dict(name)
    ~ open_hseg_imp(suf)
}

class Cell {
  .. Variables ..
    + hseg
    + name
    + roi_csv_path
    
  .. Properties ..
    + roi()
    + nucs()
    
  .. Methods ..
    ~ add_nuc()
      
  .. Static Methods ..
    # read_roi_csv(cal)
}

class Nuc {
  .. Instance Variables ..
    + cell
    + name
    + id_num
    
  .. Properties ..
    + roi()
    + vor_roi()
}


Exper *-right- Hseg
Hseg *-right- Cell
Cell *-right- Nuc
@enduml

PlantUML version 1.2019.12(Sun Nov 03 10:24:54 UTC 2019)
(GPL source distribution)
Java Runtime: Java(TM) SE Runtime Environment
JVM: Java HotSpot(TM) 64-Bit Server VM
Java Version: 1.7.0_25-b15
Operating System: Linux
Default Encoding: UTF-8
Language: en
Country: US
--></g></svg>